<svg version="1.1" id="Layer_1___OIntLXTm" xmlns="http://www.w3.org/2000/svg" xmlns:xlink="http://www.w3.org/1999/xlink" x="0px" y="0px" viewBox="0 0 624.3 108.5" style="enable-background:new 0 0 624.3 108.5;" xml:space="preserve">
<style type="text/css">
	.st0{enable-background:new    ;}
	.st1{fill:#fff;}
</style>
<g id="Risk_Profile_Gateway___OIntLXTm">
	<g>
		<g class="st0">
			<path class="st1" d="M1.1,57.9c0.5-0.5,1.1-0.7,1.8-0.7s1.3,0.2,1.8,0.7s0.7,1.1,0.7,1.8S5.2,61,4.7,61.5s-1.1,0.7-1.8,0.7
				s-1.3-0.2-1.8-0.7s-0.7-1.1-0.7-1.8S0.6,58.4,1.1,57.9z M1.1,71.9h3.2v34.6H1.1V71.9z"></path>
			<path class="st1" d="M33.8,56.1c7.5,0,13.7,2.4,18.8,7.3s7.5,10.8,7.5,17.9s-2.5,13-7.5,17.9s-11.3,7.3-18.8,7.3H19.1V56.1H33.8z
				 M22.7,59.7v43.2h11.1c6.6,0,12.1-2.1,16.3-6.2s6.4-9.3,6.4-15.4s-2.1-11.3-6.4-15.4s-9.7-6.2-16.3-6.2L22.7,59.7L22.7,59.7z"></path>
			<path class="st1" d="M91.1,84.9c0-3-0.9-5.5-2.8-7.4s-4.2-3-7-3c-1.9,0-3.7,0.4-5.3,1.2s-2.9,1.7-3.7,2.6l-1.1,1.2l-2.2-2.1
				c0.1-0.1,0.3-0.4,0.5-0.7s0.7-0.8,1.5-1.5s1.6-1.3,2.5-1.9s2-1,3.4-1.5s2.8-0.7,4.2-0.7c3.7,0,6.8,1.3,9.3,3.9s3.7,5.9,3.7,9.8
				v21.6h-3.2v-5.8c-0.1,0.2-0.2,0.4-0.5,0.7s-0.7,0.8-1.5,1.6s-1.6,1.4-2.5,2s-2.1,1.1-3.5,1.6s-3,0.7-4.7,0.7
				c-3.3,0-6.1-1-8.2-2.9s-3.3-4.2-3.3-6.8c0-2.7,0.9-5,2.8-6.9s4.4-3.1,7.6-3.6L91.1,84.9z M87.5,100.4c2.4-2.4,3.6-5.4,3.6-9v-3.2
				l-13,2.1c-5.3,0.9-7.9,3.3-7.9,7.2c0,1.7,0.8,3.2,2.3,4.5s3.5,1.9,5.9,1.9C82.1,103.9,85.1,102.8,87.5,100.4z"></path>
			<path class="st1" d="M123.8,78.8c-0.1-0.1-0.2-0.2-0.4-0.5s-0.5-0.6-1-1.1s-1.1-0.9-1.7-1.3s-1.3-0.7-2.3-1s-1.9-0.5-2.9-0.5
				c-2.4,0-4.3,0.6-5.8,1.8s-2.2,2.6-2.2,4.3c0,1.5,0.7,2.7,2.1,3.7s3,1.7,5,2.2s3.9,1.1,5.8,1.8s3.6,1.7,4.9,3.1s2.1,3.2,2.1,5.4
				c0,3-1.1,5.5-3.3,7.4s-5.2,3-8.9,3c-1.5,0-2.9-0.2-4.3-0.6s-2.5-0.8-3.5-1.4s-1.8-1.2-2.5-1.7s-1.2-1.1-1.6-1.4l-0.5-0.6l2.5-2.5
				c0.3,0.4,0.7,0.8,1.2,1.4s1.6,1.3,3.3,2.2s3.4,1.4,5.3,1.4c2.8,0,5-0.7,6.6-2s2.4-3.1,2.4-5.1c0-1.6-0.7-2.9-2.1-3.9
				s-3-1.8-5-2.3s-3.9-1.2-5.8-1.8s-3.6-1.7-4.9-3s-2-3.1-2-5.2c0-2.4,1.1-4.6,3.2-6.5s4.8-2.9,7.9-2.9c2,0,3.9,0.4,5.7,1.3
				s3.1,1.7,3.9,2.5l1.1,1.3L123.8,78.8z"></path>
			<path class="st1" d="M140.7,78c0.1-0.2,0.2-0.4,0.4-0.8s0.6-0.9,1.3-1.6s1.4-1.4,2.3-2.1s1.9-1.2,3.4-1.7s2.9-0.8,4.6-0.8
				c4,0,7.3,1.4,10,4.2s4,6.3,4,10.6v20.5h-3.3V85.9c0-3.3-1-6.1-3.1-8.3s-4.6-3.2-7.7-3.2c-3.3,0-6.1,1.2-8.4,3.6s-3.5,5.4-3.5,9
				v19.4h-3.2V56.1h3.2V78z"></path>
			<path class="st1" d="M182.1,78.8c0.1-0.2,0.3-0.4,0.5-0.8s0.8-1,1.6-1.8s1.7-1.7,2.6-2.3s2.2-1.2,3.7-1.8s3.1-0.8,4.8-0.8
				c4.2,0,8,1.8,11.3,5.3s4.9,7.8,4.9,12.7s-1.6,9.2-4.9,12.7s-7.1,5.3-11.3,5.3c-1.7,0-3.3-0.3-4.8-0.8s-2.8-1.2-3.8-1.9
				s-1.9-1.4-2.6-2.2s-1.3-1.4-1.6-1.9l-0.5-0.8v6.9h-3.2V56.1h3.2L182.1,78.8L182.1,78.8z M186.1,99.6c2.7,2.9,5.8,4.3,9.3,4.3
				c3.3,0,6.3-1.4,9-4.3s4-6.4,4-10.4s-1.3-7.5-4-10.4s-5.7-4.3-9-4.3c-3.5,0-6.6,1.4-9.3,4.3s-4,6.3-4,10.4S183.4,96.8,186.1,99.6z
				"></path>
			<path class="st1" d="M223.9,76.4c3.4-3.5,7.5-5.3,12.2-5.3s8.8,1.8,12.2,5.3s5.1,7.8,5.1,12.7s-1.7,9.2-5.1,12.7
				s-7.5,5.3-12.2,5.3s-8.8-1.8-12.2-5.3s-5.1-7.8-5.1-12.7S220.5,79.9,223.9,76.4z M246,78.8c-2.8-2.9-6.1-4.3-9.9-4.3
				s-7.1,1.4-9.9,4.3s-4.1,6.3-4.1,10.4s1.4,7.6,4.1,10.4s6.1,4.3,9.9,4.3s7.1-1.4,9.9-4.3s4.1-6.3,4.1-10.4S248.8,81.6,246,78.8z"></path>
			<path class="st1" d="M284,84.9c0-3-0.9-5.5-2.8-7.4s-4.2-3-7-3c-1.9,0-3.6,0.4-5.3,1.2s-2.9,1.7-3.7,2.6l-1,1.2l-2.2-2.1
				c0.1-0.1,0.3-0.4,0.5-0.7s0.7-0.8,1.5-1.5s1.6-1.3,2.5-1.9s2-1,3.4-1.5s2.8-0.7,4.2-0.7c3.7,0,6.8,1.3,9.3,3.9s3.7,5.9,3.7,9.8
				v21.6H284v-5.8c-0.1,0.2-0.2,0.4-0.5,0.7s-0.7,0.8-1.5,1.6s-1.6,1.4-2.5,2s-2.1,1.1-3.5,1.6s-3,0.7-4.7,0.7c-3.3,0-6-1-8.2-2.9
				s-3.3-4.2-3.3-6.8c0-2.7,0.9-5,2.8-6.9s4.4-3.1,7.6-3.6L284,84.9z M280.4,100.4c2.4-2.4,3.6-5.4,3.6-9v-3.2l-13,2.1
				c-5.3,0.9-7.9,3.3-7.9,7.2c0,1.7,0.8,3.2,2.3,4.5s3.5,1.9,5.9,1.9C274.9,103.9,277.9,102.8,280.4,100.4z"></path>
			<path class="st1" d="M316.3,74.5h-1.4c-3.4,0-6.2,1.2-8.6,3.5s-3.6,5.4-3.6,9.1v19.4h-3.2V71.9h3.2v5.8c0.1-0.2,0.2-0.4,0.4-0.7
				s0.6-0.8,1.3-1.6s1.5-1.4,2.3-2s2-1.1,3.5-1.6s3-0.7,4.7-0.7h1.4L316.3,74.5L316.3,74.5z"></path>
			<path class="st1" d="M350.5,56.1h3.2v50.4h-3.2v-6.9c-0.1,0.2-0.3,0.4-0.5,0.8s-0.8,1-1.6,1.8s-1.7,1.7-2.6,2.3s-2.2,1.2-3.7,1.8
				s-3.1,0.8-4.8,0.8c-4.2,0-8-1.8-11.3-5.3s-5-7.8-5-12.7s1.6-9.2,4.9-12.7s7-5.3,11.3-5.3c1.7,0,3.3,0.3,4.8,0.8s2.8,1.2,3.8,1.9
				s1.9,1.4,2.6,2.2s1.3,1.4,1.6,1.9l0.5,0.8L350.5,56.1L350.5,56.1z M346.5,78.8c-2.7-2.9-5.8-4.3-9.3-4.3c-3.3,0-6.3,1.4-9,4.3
				s-4,6.4-4,10.4s1.3,7.5,4,10.4s5.7,4.3,9,4.3c3.5,0,6.6-1.4,9.3-4.3s4-6.3,4-10.4S349.2,81.6,346.5,78.8z"></path>
		</g>
		<g transform="translate(6 1.333)">
			<polygon class="st1" points="119.5,27.2 132.5,14.5 119.7,14.5 119.7,8.5 141.6,8.5 141.6,14.6 128.6,27.2 141.9,27.2 
				141.9,33.2 119.5,33.2 			"></polygon>
			<polygon class="st1" points="110.3,6.5 117,6.5 117,0.4 110.3,0.4 			"></polygon>
			<polygon class="st1" points="110.2,33.3 116.9,33.3 116.9,8.6 110.2,8.6 			"></polygon>
			<g transform="translate(0 .122)">
				<path class="st1" d="M47.3,20.7c0-3.5-2.8-6.4-6.2-6.4c-3.5,0-6.2,2.9-6.2,6.4s2.7,6.4,6.2,6.4C44.5,27.1,47.3,24.2,47.3,20.7
					 M28.2,20.7c0-7.1,5.7-12.8,12.8-12.8s12.8,5.7,12.8,12.8s-5.7,12.8-12.8,12.8C33.9,33.6,28.2,27.8,28.2,20.7 M84.4,8.4h6.7v2.8
					c1.6-2,4-3.3,6.8-3.3c5.8,0,9.3,3.8,9.3,10.1v15.1h-6.9V18.9c0-3.3-1.5-5.2-4.6-5.2c-2.6,0-4.7,1.8-4.7,5.9v13.5h-6.8L84.4,8.4
					L84.4,8.4z M161.8,20.7c0-3.7-2.7-6.6-6.3-6.6c-3.8,0-6.6,2.8-6.6,6.6s2.9,6.7,6.6,6.7C159.1,27.3,161.8,24.3,161.8,20.7
					 M142.2,20.7c0-8.7,6.4-12.8,12-12.8c3.2,0,5.7,1.2,7.4,2.9V8.4h6.8v24.7h-6.8v-2.8c-1.6,1.9-4.2,3.3-7.5,3.3
					C148.9,33.6,142.2,29.4,142.2,20.7 M171.1,8.4h6.7v2.8c1.6-2,4-3.3,6.8-3.3c5.8,0,9.3,3.8,9.3,10.1v15.1h-6.9V18.9
					c0-3.3-1.5-5.2-4.6-5.2c-2.6,0-4.7,1.8-4.7,5.9v13.5h-6.8L171.1,8.4L171.1,8.4z"></path>
				<polyline class="st1" points="119.5,33.1 119.5,27 132.5,14.4 119.7,14.4 119.7,8.4 141.6,8.4 141.6,14.5 128.6,27.1 				"></polyline>
				<path class="st1" d="M21,20.5l-0.1,0.2c-1.9,3.9-5.3,6.2-9.4,6.2c-6,0-10.7-4.7-10.7-10.8C0.8,10,5.5,5.3,11.6,5.3
					c4,0,7,1.9,9,5.6l0.1,0.2l6-3.8l-0.1-0.2c-3.1-5.3-8.8-8.5-15.1-8.5C1.6-1.5-6,6.1-6,16.2c0,10.2,7.4,17.6,17.6,17.6
					c6.6,0,12.4-3.6,15.6-9.8l0.1-0.2L21,20.5z M75.2,20.7c0-3.7-2.7-6.6-6.3-6.6c-3.8,0-6.6,2.8-6.6,6.6s2.9,6.7,6.6,6.7
					C72.5,27.3,75.2,24.3,75.2,20.7 M55.6,20.7c0-8.7,6.4-12.8,12-12.8c3.2,0,5.7,1.3,7.4,3.2V8.4h6.8v24c0,7-4.4,12.6-12.8,12.6
					c-6.3,0-10.9-3.3-12.8-7.1l6-3.4c1.3,2.6,3.6,4.2,6.9,4.2c3.7,0,6-2.9,6-6.1v-2.3c-1.6,1.9-4.2,3.3-7.5,3.3
					C62.2,33.6,55.6,29.4,55.6,20.7 M210.7,14.5V8.4h-4.6V0.2h-6.8v8.1h-4.2v6.1h4.2v7.9c0,8.1,2.6,10.7,10.4,10.7h1v-6.3
					c-4.1,0-4.6-0.6-4.6-4.4v-7.9L210.7,14.5L210.7,14.5z M211.2,1.3c-0.1,0-0.2-0.1-0.4-0.1h-0.3v0.7h0.3c0.1,0,0.2,0,0.3,0
					c0.1,0,0.2-0.2,0.2-0.3C211.4,1.4,211.3,1.3,211.2,1.3z M210.9,1c0.2,0,0.4,0,0.5,0.1c0.2,0.1,0.3,0.2,0.3,0.5
					c0,0.2-0.1,0.3-0.2,0.4c-0.1,0-0.2,0.1-0.3,0.1c0.1,0,0.3,0.1,0.3,0.2c0.1,0.1,0.1,0.2,0.1,0.3v0.1c0,0,0,0.1,0,0.1
					c0,0,0,0.1,0,0.1l0,0h-0.3c0,0,0,0,0,0s0,0,0,0l0-0.1V2.6c0-0.2-0.1-0.4-0.2-0.4c-0.1,0-0.2-0.1-0.4-0.1h-0.3v0.7h-0.3V1
					L210.9,1L210.9,1z M209.9,0.9c-0.3,0.3-0.4,0.6-0.4,1s0.1,0.8,0.4,1.1s0.6,0.4,1.1,0.4s0.8-0.2,1.1-0.4c0.3-0.3,0.4-0.6,0.4-1.1
					c0-0.4-0.1-0.8-0.4-1s-0.6-0.4-1.1-0.4C210.5,0.5,210.1,0.6,209.9,0.9z M212.1,3.2c-0.3,0.3-0.8,0.5-1.2,0.5
					c-0.5,0-0.9-0.2-1.2-0.5s-0.5-0.8-0.5-1.2s0.2-0.9,0.5-1.2s0.7-0.5,1.2-0.5s0.9,0.2,1.2,0.5c0.3,0.3,0.5,0.7,0.5,1.2
					C212.6,2.4,212.5,2.8,212.1,3.2z"></path>
			</g>
		</g>
	</g>
</g>
<g id="Template___OIntLXTm">
</g>
</svg>